<svg xmlns="http://www.w3.org/2000/svg" width="24.379" height="24.379" viewBox="0 0 24.379 24.379">
  <path id="Icon_awesome-smile" data-name="Icon awesome-smile" d="M12.189.563A12.189,12.189,0,1,0,24.379,12.752,12.187,12.187,0,0,0,12.189.563ZM16.121,8.82a1.573,1.573,0,1,1-1.573,1.573A1.571,1.571,0,0,1,16.121,8.82Zm-7.864,0a1.573,1.573,0,1,1-1.573,1.573A1.571,1.571,0,0,1,8.257,8.82Zm8.365,9.018H7.756c-1.024,0-1.128-1.677,0-1.66h8.867C17.722,16.178,17.515,17.838,16.623,17.838Z" transform="translate(0 -0.563)" fill="#adb7c4"/>
</svg>
