<svg xmlns="http://www.w3.org/2000/svg" width="24.379" height="24.379" viewBox="0 0 24.379 24.379">
  <path id="Icon_awesome-sad-tear" data-name="Icon awesome-sad-tear" d="M12.189.563A12.189,12.189,0,1,0,24.379,12.752,12.187,12.187,0,0,0,12.189.563ZM16.121,8.82a1.573,1.573,0,1,1-1.573,1.573A1.571,1.571,0,0,1,16.121,8.82Zm-8.651,11.8a2.334,2.334,0,0,1-2.359-2.31c0-.983,1.4-2.969,2.045-3.824a.391.391,0,0,1,.629,0c.644.855,2.045,2.841,2.045,3.824A2.334,2.334,0,0,1,7.471,20.616Zm.786-8.651A1.573,1.573,0,1,1,9.83,10.393,1.571,1.571,0,0,1,8.257,11.966Zm8.365,7.579a5.767,5.767,0,0,0-4.433-2.074.786.786,0,0,1,0-1.573,7.312,7.312,0,0,1,5.638,2.644A.784.784,0,0,1,16.623,19.545Z" transform="translate(0 -0.563)" fill="#adb7c4"/>
</svg>
