<svg xmlns="http://www.w3.org/2000/svg" width="24.379" height="24.379" viewBox="0 0 24.379 24.379">
  <path id="Icon_awesome-laugh" data-name="Icon awesome-laugh" d="M12.189.563A12.189,12.189,0,1,0,24.379,12.752,12.187,12.187,0,0,0,12.189.563Zm3.932,7.471a1.573,1.573,0,1,1-1.573,1.573A1.571,1.571,0,0,1,16.121,8.033Zm-7.864,0A1.573,1.573,0,1,1,6.684,9.606,1.571,1.571,0,0,1,8.257,8.033ZM12.583,21.4H11.8A7.084,7.084,0,0,1,4.773,15.21a.79.79,0,0,1,.781-.885H18.825a.787.787,0,0,1,.781.885A7.084,7.084,0,0,1,12.583,21.4Z" transform="translate(0 -0.563)" fill="#adb7c4"/>
</svg>
