<svg xmlns="http://www.w3.org/2000/svg" width="24.379" height="24.379" viewBox="0 0 24.379 24.379">
  <path id="Icon_awesome-angry" data-name="Icon awesome-angry" d="M12.189.563A12.189,12.189,0,1,0,24.379,12.752,12.187,12.187,0,0,0,12.189.563Zm-5.5,11.4a1.557,1.557,0,0,1,.516-1.15l-1.524-.457a.785.785,0,0,1,.452-1.5l3.932,1.18a.786.786,0,0,1-.226,1.538c-.025,0-.054-.01-.084-.01a1.589,1.589,0,0,1,.084.4,1.575,1.575,0,0,1-3.151,0Zm8.257,7.579a3.7,3.7,0,0,0-5.51,0,.787.787,0,0,1-1.209-1.008,5.152,5.152,0,0,1,7.923,0A.785.785,0,0,1,14.942,19.545Zm3.765-9.186-1.524.457a1.568,1.568,0,1,1-2.63,1.15,1.369,1.369,0,0,1,.084-.4.484.484,0,0,1-.084.01.786.786,0,0,1-.226-1.538l3.932-1.18a.785.785,0,1,1,.447,1.5Z" transform="translate(0 -0.563)" fill="#adb7c4"/>
</svg>
